<?xml version="1.0" encoding="UTF-8"?>
<!DOCTYPE svg PUBLIC "-//W3C//DTD SVG 1.1//EN" "http://www.w3.org/Graphics/SVG/1.1/DTD/svg11.dtd">
<svg xmlns="http://www.w3.org/2000/svg" version="1.1" width="80px" height="80px" style="shape-rendering:geometricPrecision; text-rendering:geometricPrecision; image-rendering:optimizeQuality; fill-rule:evenodd; clip-rule:evenodd" xmlns:xlink="http://www.w3.org/1999/xlink">
<g><path style="opacity:0.651" fill="#000000" d="M 24.5,6.5 C 28.634,5.94295 32.3007,6.94295 35.5,9.5C 38.1667,8.16667 40.8333,8.16667 43.5,9.5C 51.3839,4.11957 56.7173,5.95291 59.5,15C 58.9638,17.24 57.7971,19.0734 56,20.5C 55.7618,24.2222 55.2618,27.8889 54.5,31.5C 59.5,34.3333 64.5,37.1667 69.5,40C 72.1667,43.3333 72.1667,46.6667 69.5,50C 65.2009,50.7367 61.2009,49.9034 57.5,47.5C 56.3861,48.723 56.2195,50.0563 57,51.5C 64.4422,58.775 64.2756,65.9417 56.5,73C 53.5,73.6667 50.5,73.6667 47.5,73C 42.1667,68.3333 36.8333,68.3333 31.5,73C 22.6128,74.7924 17.6128,71.1257 16.5,62C 16.4433,57.4991 18.2766,53.9991 22,51.5C 22.7805,50.0563 22.6139,48.723 21.5,47.5C 17.0355,50.6749 12.5355,51.0083 8,48.5C 7.33333,46.1667 7.33333,43.8333 8,41.5C 13.2505,37.7898 18.7505,34.4565 24.5,31.5C 23.7382,27.8889 23.2382,24.2222 23,20.5C 21.2029,19.0734 20.0362,17.24 19.5,15C 20.1498,11.5283 21.8165,8.695 24.5,6.5 Z M 47.5,12.5 C 47.5,14.5 48.5,15.5 50.5,15.5C 50.2852,17.1788 50.9519,18.1788 52.5,18.5C 52.6653,22.1817 52.4986,25.8484 52,29.5C 51.4818,26.9774 50.1485,24.9774 48,23.5C 47.51,22.2068 47.3433,20.8734 47.5,19.5C 42.1667,20.8333 36.8333,20.8333 31.5,19.5C 31.6567,20.8734 31.49,22.2068 31,23.5C 28.8515,24.9774 27.5182,26.9774 27,29.5C 26.7022,25.6343 26.5355,21.9676 26.5,18.5C 28.332,17.8595 28.6653,16.8595 27.5,15.5C 26.4777,15.8555 25.811,16.5222 25.5,17.5C 22.1672,15.6035 22.1672,13.2701 25.5,10.5C 26.4461,10.0133 27.4461,9.67994 28.5,9.5C 30.5,10.5 32.5,11.5 34.5,12.5C 39.025,11.5627 43.3584,11.5627 47.5,12.5 Z M 53.5,17.5 C 53.1788,15.9519 52.1788,15.2852 50.5,15.5C 50.5,14.5 50.5,13.5 50.5,12.5C 49.5,12.5 48.5,12.5 47.5,12.5C 48.495,9.40793 50.495,8.74126 53.5,10.5C 56.8328,13.2701 56.8328,15.6035 53.5,17.5 Z M 35.5,23.5 C 42.3755,22.3874 47.0422,25.0541 49.5,31.5C 45.2201,39.0027 39.5535,40.5027 32.5,36C 31.1279,34.7581 30.1279,33.2581 29.5,31.5C 30.5608,28.0087 32.5608,25.342 35.5,23.5 Z M 25.5,34.5 C 34.6682,43.792 43.8349,43.792 53,34.5C 57.5,37 62,39.5 66.5,42C 69.3033,44.2217 69.1366,46.0551 66,47.5C 63.0053,46.724 60.172,45.5574 57.5,44C 56.1667,43.3333 54.8333,43.3333 53.5,44C 53.2155,45.9562 53.2155,48.1229 53.5,50.5C 52.0695,50.4208 50.7362,50.7542 49.5,51.5C 48.6667,50.5 47.8333,49.5 47,48.5C 44.8333,50 45,51.1667 47.5,52C 42.9517,56.1321 41.285,61.2987 42.5,67.5C 40.5,67.5 38.5,67.5 36.5,67.5C 36.665,64.1501 36.4983,60.8168 36,57.5C 35.2155,55.714 34.0488,54.214 32.5,53C 32.9574,52.586 33.2907,52.086 33.5,51.5C 30.8908,51.728 28.2241,51.3946 25.5,50.5C 25.7845,48.1229 25.7845,45.9562 25.5,44C 24.1667,43.3333 22.8333,43.3333 21.5,44C 18.828,45.5574 15.9947,46.724 13,47.5C 9.86336,46.0551 9.6967,44.2217 12.5,42C 17.2232,39.9783 21.5566,37.4783 25.5,34.5 Z M 30.5,56.5 C 31.4584,56.9528 32.2917,57.6195 33,58.5C 35.2166,68.2866 31.7166,71.7866 22.5,69C 17.6387,62.296 18.8053,57.1293 26,53.5C 27.9812,53.8985 29.4812,54.8985 30.5,56.5 Z M 51.5,53.5 C 59.809,55.8675 61.6423,60.8675 57,68.5C 47.6082,72.1231 43.9415,68.7897 46,58.5C 47.7297,56.5981 49.563,54.9314 51.5,53.5 Z"/></g>
<g><path style="opacity:0.393" fill="#000000" d="M 28.5,12.5 C 31.5476,12.494 32.0476,13.494 30,15.5C 28.9614,14.7562 28.4614,13.7562 28.5,12.5 Z"/></g>
<g><path style="opacity:0.345" fill="#000000" d="M 47.5,12.5 C 48.5,12.5 49.5,12.5 50.5,12.5C 50.5,13.5 50.5,14.5 50.5,15.5C 48.5,15.5 47.5,14.5 47.5,12.5 Z"/></g>
<g><path style="opacity:0.459" fill="#000000" d="M 26.5,18.5 C 26.5,17.8333 26.1667,17.5 25.5,17.5C 25.811,16.5222 26.4777,15.8555 27.5,15.5C 28.6653,16.8595 28.332,17.8595 26.5,18.5 Z"/></g>
<g><path style="opacity:0.344" fill="#000000" d="M 50.5,15.5 C 52.1788,15.2852 53.1788,15.9519 53.5,17.5C 52.8333,17.5 52.5,17.8333 52.5,18.5C 50.9519,18.1788 50.2852,17.1788 50.5,15.5 Z"/></g>
<g><path style="opacity:0.729" fill="#000000" d="M 36.5,24.5 C 45.236,24.484 46.236,26.8173 39.5,31.5C 37.6115,30.396 35.9448,29.0627 34.5,27.5C 35.1925,26.4822 35.8592,25.4822 36.5,24.5 Z"/></g>
<g><path style="opacity:0.686" fill="#000000" d="M 38.5,33.5 C 40.337,33.6395 40.6704,34.3061 39.5,35.5C 38.7025,35.0431 38.3691,34.3764 38.5,33.5 Z"/></g>
<g><path style="opacity:0.305" fill="#000000" d="M 35.5,47.5 C 35.5,46.5 35.5,45.5 35.5,44.5C 36.5,44.5 37.5,44.5 38.5,44.5C 38.5,45.5 38.5,46.5 38.5,47.5C 37.5,47.5 36.5,47.5 35.5,47.5 Z"/></g>
<g><path style="opacity:0.394" fill="#000000" d="M 39.5,44.5 C 42.5476,44.494 43.0476,45.494 41,47.5C 39.9614,46.7562 39.4614,45.7562 39.5,44.5 Z"/></g>
<g><path style="opacity:0.459" fill="#000000" d="M 43.5,45.5 C 45.4646,45.9483 45.7979,46.9483 44.5,48.5C 43.6143,47.675 43.281,46.675 43.5,45.5 Z"/></g>
<g><path style="opacity:0.393" fill="#000000" d="M 35.5,47.5 C 34.6324,49.6246 33.6324,49.7913 32.5,48C 33.1765,46.3167 34.1765,46.1501 35.5,47.5 Z"/></g>
<g><path style="opacity:0.306" fill="#000000" d="M 54.5,58.5 C 53.5,58.5 52.5,58.5 51.5,58.5C 51.5,57.5 51.5,56.5 51.5,55.5C 52.5,55.5 53.5,55.5 54.5,55.5C 54.5,56.5 54.5,57.5 54.5,58.5 Z"/></g>
<g><path style="opacity:0.393" fill="#000000" d="M 23.5,56.5 C 26.5476,56.494 27.0476,57.494 25,59.5C 23.9614,58.7562 23.4614,57.7562 23.5,56.5 Z"/></g>
<g><path style="opacity:0.306" fill="#000000" d="M 30.5,56.5 C 30.5,57.5 30.5,58.5 30.5,59.5C 29.5,59.5 28.5,59.5 27.5,59.5C 27.5,58.5 27.5,57.5 27.5,56.5C 28.5,56.5 29.5,56.5 30.5,56.5 Z"/></g>
<g><path style="opacity:0.686" fill="#000000" d="M 48.5,57.5 C 50.337,57.6395 50.6704,58.3061 49.5,59.5C 48.7025,59.0431 48.3691,58.3764 48.5,57.5 Z"/></g>
<g><path style="opacity:0.344" fill="#000000" d="M 54.5,58.5 C 56.5983,57.0857 57.5983,57.7524 57.5,60.5C 55.8212,60.7148 54.8212,60.0481 54.5,58.5 Z"/></g>
<g><path style="opacity:0.686" fill="#000000" d="M 21.5,59.5 C 23.337,59.6395 23.6704,60.3061 22.5,61.5C 21.7025,61.0431 21.3691,60.3764 21.5,59.5 Z"/></g>
<g><path style="opacity:0.766" fill="#000000" d="M 24.5,62.5 C 26.1667,62.5 27.8333,62.5 29.5,62.5C 29.5,64.1667 29.5,65.8333 29.5,67.5C 27.8333,67.5 26.1667,67.5 24.5,67.5C 24.5,65.8333 24.5,64.1667 24.5,62.5 Z"/></g>
<g><path style="opacity:0.766" fill="#000000" d="M 49.5,62.5 C 51.1667,62.5 52.8333,62.5 54.5,62.5C 54.5,64.1667 54.5,65.8333 54.5,67.5C 52.8333,67.5 51.1667,67.5 49.5,67.5C 49.5,65.8333 49.5,64.1667 49.5,62.5 Z"/></g>
</svg>
